<svg width="1739" height="500" viewBox="0 0 1739 500" fill="none" xmlns="http://www.w3.org/2000/svg">
<path d="M487.397 497.636H464.677C462.3 497.636 460.067 496.426 458.799 494.38L349.074 317.936C346.496 313.815 342.476 313.369 340.862 313.369C339.263 313.369 335.186 313.801 332.65 317.936L222.926 494.38C221.658 496.426 219.425 497.636 217.048 497.636H194.328C188.896 497.636 185.583 491.657 188.45 487.047L304.542 300.446C312.408 287.767 326.009 280.247 340.906 280.247C355.817 280.247 369.403 287.767 377.269 300.446L493.362 487.047C496.229 491.657 492.93 497.636 487.484 497.636H487.397Z" fill="#F3EFD7"></path>
<path d="M549.882 497.651H527.162C524.785 497.651 522.552 496.441 521.284 494.395L355.775 228.267C352.476 222.98 347.088 219.969 340.864 219.969C334.654 219.969 329.208 222.98 325.952 228.267L160.443 494.395C159.176 496.441 156.942 497.651 154.565 497.651H131.845C126.414 497.651 123.1 491.672 125.967 487.062L297.801 210.791C307.122 195.793 323.201 186.847 340.864 186.847C349.695 186.847 358.095 189.08 365.529 193.215C372.905 197.335 379.273 203.314 383.927 210.791L555.746 487.062C558.627 491.672 555.314 497.651 549.882 497.651Z" fill="#F3EFD7"></path>
<path d="M612.323 497.634H589.603C587.226 497.634 584.993 496.424 583.725 494.378L362.475 138.58C357.72 130.959 349.854 126.594 340.864 126.594C331.874 126.594 324.022 130.959 319.253 138.58L98.0176 494.378C96.7497 496.424 94.5166 497.634 92.1395 497.634H69.4194C63.988 497.634 60.6743 491.656 63.5413 487.045L291.145 121.047C301.677 104.104 319.743 93.803 339.654 93.414C360.63 92.9818 380.152 104.147 391.26 121.969L618.287 487.002C621.154 491.612 617.855 497.591 612.409 497.591L612.323 497.634Z" fill="#F3EFD7"></path>
<path d="M674.804 497.636H652.084C649.707 497.636 647.474 496.426 646.206 494.38L369.171 48.8978C362.962 38.8992 352.661 33.1652 340.861 33.1652C329.062 33.1652 318.775 38.8992 312.551 48.8978L35.5312 494.38C34.2634 496.426 32.0303 497.636 29.6531 497.636H6.93311C1.50163 497.636 -1.81201 491.657 1.05501 487.047L284.457 31.3643C296.689 11.7562 317.767 0 340.919 0C364.086 0 385.149 11.6986 397.38 31.3643L680.768 487.047C683.635 491.657 680.336 497.636 674.905 497.636H674.804Z" fill="#F3EFD7"></path>
<path d="M1611.68 497.047V316.036H1641.16V382.107L1639.69 419.435L1664.01 391.198L1692.75 361.476H1730.82L1683.66 408.63L1738.18 497.047H1704.05L1663.03 429.506L1641.18 451.362V497.047H1611.68ZM1567.71 406.181C1567.71 392.422 1561.58 383.346 1549.55 383.346C1537.76 383.346 1527.2 393.661 1517.62 413.312V497.047H1488.39V361.476H1516.38L1517.12 381.127C1527.19 366.633 1539.71 358.537 1555.18 358.537C1580.23 358.537 1597.18 375.479 1597.18 406.181V423.124H1567.7V406.181H1567.71ZM1363.2 429.261C1363.2 458.248 1378.19 475.926 1402.26 475.926C1426.34 475.926 1441.06 458.248 1441.06 429.261C1441.06 400.274 1426.32 382.596 1402.26 382.596C1378.19 382.596 1363.2 400.274 1363.2 429.261ZM1402.26 500C1359.78 500 1333.99 473.232 1333.99 429.261C1333.99 385.291 1359.78 358.522 1402.26 358.522C1444.75 358.522 1470.54 385.291 1470.54 429.261C1470.54 473.232 1444.75 500 1402.26 500ZM1173.85 497.047L1134.81 361.476H1164.04L1184.92 434.664L1192.03 471.748L1199.65 436.378L1221.02 361.476H1248.77L1270.62 436.378L1278.25 472.238L1285.61 434.664L1306.48 361.476H1334.23L1295.42 497.047H1261.78L1240.9 425.083L1234.52 393.402L1228.14 425.083L1207.25 497.047H1173.85ZM1113.99 497.047C1086.98 497.047 1072.48 478.879 1072.48 453.09V385.305H1047.92V361.476H1072.48V337.156L1101.96 322.418V361.461H1130.93V385.291H1101.96V453.076C1101.96 466.835 1107.12 473.217 1125.04 473.217H1145.18V497.047H1113.99ZM947.617 408.14H1019.09C1017.87 392.422 1004.11 382.107 985.19 382.107C965.784 382.107 953.019 391.198 947.617 408.14ZM983.966 500C941.234 500 915.201 473.232 915.201 429.016C915.201 385.305 941.724 358.537 985.19 358.537C1028.9 358.537 1052 385.55 1049.04 429.276H944.418V430.255C944.418 457.024 958.422 475.94 983.966 475.94C1003.37 475.94 1017.12 466.115 1020.07 450.641H1049.55C1045.35 481.328 1020.56 500 983.966 500ZM754.95 497.047V325.616H790.32L868.911 457.499L864.488 394.137V325.616H895.434V497.047H860.065L781.229 364.919L785.897 428.526V497.047H754.95ZM1272.81 200.779C1272.81 183.101 1262.25 171.547 1246.78 171.547C1230.33 171.547 1217.3 181.617 1207.48 203.963V285.262H1178.25V104.251H1207.48V169.587C1218.77 154.114 1234.74 146.752 1252.18 146.752C1282.88 146.752 1302.05 167.628 1302.05 199.064V285.262H1272.81V200.779ZM1099.08 288.215C1056.84 288.215 1030.8 260.957 1030.8 217.477C1030.8 174.01 1057.08 146.738 1099.57 146.738C1135.43 146.738 1159.49 166.389 1161.95 197.825H1132.72C1130.01 181.127 1117.25 171.057 1099.57 171.057C1075.25 171.057 1060.04 188.979 1060.04 217.477C1060.04 246.219 1075.02 264.386 1099.08 264.386C1116.02 264.386 1129.54 254.316 1133.47 238.108H1162.7C1158.52 268.809 1133.96 288.215 1099.08 288.215ZM993.014 194.396C993.014 180.638 986.876 171.561 974.846 171.561C963.061 171.561 952.501 181.877 942.92 201.528V285.262H913.688V149.691H941.681L942.416 169.342C952.486 154.849 965.006 146.752 980.479 146.752C1005.53 146.752 1022.48 163.695 1022.48 194.396V211.339H992.999V194.396H993.014ZM794.239 216.252H846.061L830.588 173.52L820.272 139.131L809.467 173.52L794.239 216.252ZM800.131 113.832H840.903L903.531 285.262H870.87L855.397 242.041H784.917L769.444 285.262H737.763L800.131 113.832Z" fill="#F3EFD7"></path>
</svg>