<svg xmlns="http://www.w3.org/2000/svg" width="128" height="128" viewBox="0 0 128 128">
  <rect width="128" height="128" rx="28" fill="#16161A"/>
  <g transform="translate(20.00,31.61) scale(0.6111)">
    <path d="M102.909 105.071H98.112C97.6101 105.071 97.1386 104.816 96.8709 104.384L73.7036 67.1292C73.1591 66.2592 72.3104 66.1649 71.9697 66.1649C71.6321 66.1649 70.7712 66.2562 70.2358 67.1292L47.0685 104.384C46.8008 104.816 46.3293 105.071 45.8274 105.071H41.0303C39.8835 105.071 39.1838 103.809 39.7892 102.835L64.301 63.4363C65.9619 60.7594 68.8335 59.1715 71.9788 59.1715C75.1272 59.1715 77.9958 60.7594 79.6567 63.4363L104.169 102.835C104.774 103.809 104.077 105.071 102.927 105.071H102.909Z" fill="#EC641D"/>
    <path d="M116.102 105.074H111.305C110.803 105.074 110.332 104.819 110.064 104.387L75.1186 48.1965C74.422 47.0801 73.2843 46.4443 71.9702 46.4443C70.6591 46.4443 69.5093 47.0801 68.8218 48.1965L33.8761 104.387C33.6084 104.819 33.1369 105.074 32.635 105.074H27.8379C26.6911 105.074 25.9914 103.812 26.5968 102.839L62.8778 44.5066C64.846 41.34 68.2408 39.4509 71.9702 39.4509C73.8349 39.4509 75.6083 39.9224 77.1779 40.7955C78.7354 41.6655 80.0799 42.9278 81.0625 44.5066L117.341 102.839C117.949 103.812 117.249 105.074 116.102 105.074Z" fill="#EC641D"/>
    <path d="M129.286 105.071H124.489C123.987 105.071 123.516 104.815 123.248 104.383L76.5331 29.26C75.5292 27.6508 73.8683 26.7291 71.9702 26.7291C70.072 26.7291 68.4142 27.6508 67.4073 29.26L20.6954 104.383C20.4278 104.815 19.9563 105.071 19.4543 105.071H14.6572C13.5104 105.071 12.8108 103.809 13.4161 102.835L61.4725 25.558C63.6961 21.9807 67.5107 19.8057 71.7147 19.7236C76.1437 19.6323 80.2655 21.9898 82.6108 25.7527L130.546 102.826C131.151 103.799 130.454 105.062 129.304 105.062L129.286 105.071Z" fill="#EC641D"/>
    <path d="M142.479 105.071H137.681C137.179 105.071 136.708 104.816 136.44 104.384L77.9471 10.3243C76.636 8.2132 74.461 7.00252 71.9697 7.00252C69.4783 7.00252 67.3064 8.2132 65.9923 10.3243L7.50209 104.384C7.2344 104.816 6.7629 105.071 6.26098 105.071H1.46386C0.317055 105.071 -0.382589 103.809 0.222755 102.835L60.0605 6.62228C62.6431 2.48221 67.0935 0 71.9818 0C76.8733 0 81.3206 2.47005 83.9032 6.62228L143.738 102.835C144.343 103.809 143.647 105.071 142.5 105.071H142.479Z" fill="#EC641D"/>
  </g>
</svg>
